<mxfile host="Electron" agent="Mozilla/5.0 (Windows NT 10.0; Win64; x64) AppleWebKit/537.36 (KHTML, like Gecko) draw.io/26.2.2 Chrome/134.0.6998.178 Electron/35.1.2 Safari/537.36" version="26.2.2" pages="2">
  <diagram name="Page-1" id="eFCvT9t6nryU6vDKs95X">
    <mxGraphModel dx="2157" dy="1706" grid="1" gridSize="10" guides="1" tooltips="1" connect="1" arrows="1" fold="1" page="1" pageScale="1" pageWidth="827" pageHeight="1169" background="#ffffff" math="0" shadow="0">
      <root>
        <mxCell id="0" />
        <mxCell id="1" parent="0" />
        <mxCell id="5VcwTSrQK2vmdFMVyRVs-18" value="" style="group" parent="1" vertex="1" connectable="0">
          <mxGeometry x="-710" y="-1060" width="505" height="140" as="geometry" />
        </mxCell>
        <mxCell id="5VcwTSrQK2vmdFMVyRVs-1" value="MODULE" style="rounded=0;whiteSpace=wrap;html=1;direction=south;" parent="5VcwTSrQK2vmdFMVyRVs-18" vertex="1">
          <mxGeometry x="198.19665271966528" width="107.33891213389123" height="140" as="geometry" />
        </mxCell>
        <mxCell id="5VcwTSrQK2vmdFMVyRVs-5" value="" style="edgeStyle=none;orthogonalLoop=1;jettySize=auto;html=1;rounded=0;fontSize=12;startSize=8;endSize=8;curved=1;" parent="5VcwTSrQK2vmdFMVyRVs-18" edge="1">
          <mxGeometry width="140" relative="1" as="geometry">
            <mxPoint x="80.71548117154812" y="27.337278106508876" as="sourcePoint" />
            <mxPoint x="199.0418410041841" y="27.337278106508876" as="targetPoint" />
            <Array as="points" />
          </mxGeometry>
        </mxCell>
        <mxCell id="5VcwTSrQK2vmdFMVyRVs-7" value="" style="edgeStyle=none;orthogonalLoop=1;jettySize=auto;html=1;rounded=0;fontSize=12;startSize=8;endSize=8;curved=1;" parent="5VcwTSrQK2vmdFMVyRVs-18" edge="1">
          <mxGeometry width="140" relative="1" as="geometry">
            <mxPoint x="80.71548117154812" y="67.10059171597632" as="sourcePoint" />
            <mxPoint x="199.0418410041841" y="67.10059171597632" as="targetPoint" />
            <Array as="points" />
          </mxGeometry>
        </mxCell>
        <mxCell id="5VcwTSrQK2vmdFMVyRVs-8" value="" style="edgeStyle=none;orthogonalLoop=1;jettySize=auto;html=1;rounded=0;fontSize=12;startSize=8;endSize=8;curved=1;" parent="5VcwTSrQK2vmdFMVyRVs-18" edge="1">
          <mxGeometry width="140" relative="1" as="geometry">
            <mxPoint x="197.35146443514645" y="109.3491124260355" as="sourcePoint" />
            <mxPoint x="79.02510460251047" y="109.3491124260355" as="targetPoint" />
            <Array as="points" />
          </mxGeometry>
        </mxCell>
        <mxCell id="5VcwTSrQK2vmdFMVyRVs-9" value="" style="edgeStyle=none;orthogonalLoop=1;jettySize=auto;html=1;rounded=0;fontSize=12;startSize=8;endSize=8;curved=1;" parent="5VcwTSrQK2vmdFMVyRVs-18" edge="1">
          <mxGeometry width="140" relative="1" as="geometry">
            <mxPoint x="305.5355648535565" y="27.337278106508876" as="sourcePoint" />
            <mxPoint x="423.8619246861925" y="27.337278106508876" as="targetPoint" />
            <Array as="points" />
          </mxGeometry>
        </mxCell>
        <mxCell id="5VcwTSrQK2vmdFMVyRVs-10" value="" style="edgeStyle=none;orthogonalLoop=1;jettySize=auto;html=1;rounded=0;fontSize=12;startSize=8;endSize=8;curved=1;" parent="5VcwTSrQK2vmdFMVyRVs-18" edge="1">
          <mxGeometry width="140" relative="1" as="geometry">
            <mxPoint x="305.5355648535565" y="69.08047337278104" as="sourcePoint" />
            <mxPoint x="423.8619246861925" y="69.08047337278104" as="targetPoint" />
            <Array as="points" />
          </mxGeometry>
        </mxCell>
        <mxCell id="5VcwTSrQK2vmdFMVyRVs-11" value="" style="edgeStyle=none;orthogonalLoop=1;jettySize=auto;html=1;rounded=0;fontSize=12;startSize=8;endSize=8;curved=1;" parent="5VcwTSrQK2vmdFMVyRVs-18" edge="1">
          <mxGeometry width="140" relative="1" as="geometry">
            <mxPoint x="423.8619246861925" y="112.66272189349112" as="sourcePoint" />
            <mxPoint x="305.5355648535565" y="112.66272189349112" as="targetPoint" />
            <Array as="points" />
          </mxGeometry>
        </mxCell>
        <mxCell id="5VcwTSrQK2vmdFMVyRVs-12" value="Data_in" style="text;html=1;align=center;verticalAlign=middle;resizable=0;points=[];autosize=1;strokeColor=none;fillColor=none;fontSize=20;" parent="5VcwTSrQK2vmdFMVyRVs-18" vertex="1">
          <mxGeometry x="4.648535564853557" y="9.52662721893491" width="90" height="40" as="geometry" />
        </mxCell>
        <mxCell id="5VcwTSrQK2vmdFMVyRVs-13" value="Valid_in" style="text;html=1;align=center;verticalAlign=middle;resizable=0;points=[];autosize=1;strokeColor=none;fillColor=none;fontSize=20;" parent="5VcwTSrQK2vmdFMVyRVs-18" vertex="1">
          <mxGeometry x="1.2677824267782427" y="46.80473372781065" width="90" height="40" as="geometry" />
        </mxCell>
        <mxCell id="5VcwTSrQK2vmdFMVyRVs-14" value="Ready_out" style="text;html=1;align=center;verticalAlign=middle;resizable=0;points=[];autosize=1;strokeColor=none;fillColor=none;fontSize=20;" parent="5VcwTSrQK2vmdFMVyRVs-18" vertex="1">
          <mxGeometry x="-24.08786610878661" y="94.4378698224852" width="120" height="40" as="geometry" />
        </mxCell>
        <mxCell id="5VcwTSrQK2vmdFMVyRVs-15" value="Data_out" style="text;html=1;align=center;verticalAlign=middle;resizable=0;points=[];autosize=1;strokeColor=none;fillColor=none;fontSize=20;" parent="5VcwTSrQK2vmdFMVyRVs-18" vertex="1">
          <mxGeometry x="425.9748953974896" y="9.11242603550296" width="100" height="40" as="geometry" />
        </mxCell>
        <mxCell id="5VcwTSrQK2vmdFMVyRVs-16" value="Valid_out" style="text;html=1;align=center;verticalAlign=middle;resizable=0;points=[];autosize=1;strokeColor=none;fillColor=none;fontSize=20;" parent="5VcwTSrQK2vmdFMVyRVs-18" vertex="1">
          <mxGeometry x="425.9748953974896" y="50.11834319526628" width="110" height="40" as="geometry" />
        </mxCell>
        <mxCell id="5VcwTSrQK2vmdFMVyRVs-17" value="Ready_in" style="text;html=1;align=center;verticalAlign=middle;resizable=0;points=[];autosize=1;strokeColor=none;fillColor=none;fontSize=20;" parent="5VcwTSrQK2vmdFMVyRVs-18" vertex="1">
          <mxGeometry x="425.9748953974896" y="94.4378698224852" width="110" height="40" as="geometry" />
        </mxCell>
        <mxCell id="5VcwTSrQK2vmdFMVyRVs-19" value="Pin Out Diagram" style="text;html=1;align=center;verticalAlign=middle;resizable=0;points=[];autosize=1;strokeColor=none;fillColor=none;fontSize=24;" parent="1" vertex="1">
          <mxGeometry x="-550" y="-1140" width="192" height="41" as="geometry" />
        </mxCell>
        <mxCell id="5VcwTSrQK2vmdFMVyRVs-58" value="" style="group" parent="1" vertex="1" connectable="0">
          <mxGeometry x="-735" y="20" width="1066" height="361" as="geometry" />
        </mxCell>
        <mxCell id="5VcwTSrQK2vmdFMVyRVs-37" value="CTRL" style="rounded=0;whiteSpace=wrap;html=1;" parent="5VcwTSrQK2vmdFMVyRVs-58" vertex="1">
          <mxGeometry x="244" y="253" width="546" height="108" as="geometry" />
        </mxCell>
        <mxCell id="5VcwTSrQK2vmdFMVyRVs-40" value="" style="edgeStyle=none;curved=1;rounded=0;orthogonalLoop=1;jettySize=auto;html=1;fontSize=12;startSize=8;endSize=8;entryX=0.5;entryY=0;entryDx=0;entryDy=0;" parent="5VcwTSrQK2vmdFMVyRVs-58" source="5VcwTSrQK2vmdFMVyRVs-38" target="5VcwTSrQK2vmdFMVyRVs-37" edge="1">
          <mxGeometry relative="1" as="geometry">
            <mxPoint x="516.9999999999999" y="240" as="targetPoint" />
          </mxGeometry>
        </mxCell>
        <mxCell id="sCQdyQtqgk9IZsuZoN2k-13" style="edgeStyle=orthogonalEdgeStyle;rounded=0;orthogonalLoop=1;jettySize=auto;html=1;exitX=0;exitY=0.5;exitDx=0;exitDy=0;" edge="1" parent="5VcwTSrQK2vmdFMVyRVs-58" source="5VcwTSrQK2vmdFMVyRVs-38">
          <mxGeometry relative="1" as="geometry">
            <mxPoint x="320" y="39.66666666666697" as="targetPoint" />
          </mxGeometry>
        </mxCell>
        <mxCell id="sCQdyQtqgk9IZsuZoN2k-15" style="edgeStyle=orthogonalEdgeStyle;rounded=0;orthogonalLoop=1;jettySize=auto;html=1;exitX=1;exitY=0.5;exitDx=0;exitDy=0;" edge="1" parent="5VcwTSrQK2vmdFMVyRVs-58" source="5VcwTSrQK2vmdFMVyRVs-38">
          <mxGeometry relative="1" as="geometry">
            <mxPoint x="660" y="39.66666666666697" as="targetPoint" />
          </mxGeometry>
        </mxCell>
        <mxCell id="5VcwTSrQK2vmdFMVyRVs-38" value="&lt;font style=&quot;font-size: 20px;&quot;&gt;==&lt;/font&gt;" style="ellipse;whiteSpace=wrap;html=1;" parent="5VcwTSrQK2vmdFMVyRVs-58" vertex="1">
          <mxGeometry x="477" width="80" height="80" as="geometry" />
        </mxCell>
        <mxCell id="5VcwTSrQK2vmdFMVyRVs-42" value="&lt;font style=&quot;font-size: 20px;&quot;&gt;Empty&lt;/font&gt;" style="text;html=1;align=center;verticalAlign=middle;resizable=0;points=[];autosize=1;strokeColor=none;fillColor=none;fontSize=16;" parent="5VcwTSrQK2vmdFMVyRVs-58" vertex="1">
          <mxGeometry x="440" y="192" width="80" height="40" as="geometry" />
        </mxCell>
        <mxCell id="5VcwTSrQK2vmdFMVyRVs-44" value="" style="edgeStyle=none;orthogonalLoop=1;jettySize=auto;html=1;rounded=0;fontSize=12;startSize=8;endSize=8;curved=1;" parent="5VcwTSrQK2vmdFMVyRVs-58" edge="1">
          <mxGeometry width="140" relative="1" as="geometry">
            <mxPoint x="104" y="279" as="sourcePoint" />
            <mxPoint x="244" y="279" as="targetPoint" />
            <Array as="points" />
          </mxGeometry>
        </mxCell>
        <mxCell id="5VcwTSrQK2vmdFMVyRVs-46" value="" style="edgeStyle=none;orthogonalLoop=1;jettySize=auto;html=1;rounded=0;fontSize=12;startSize=8;endSize=8;curved=1;" parent="5VcwTSrQK2vmdFMVyRVs-58" edge="1">
          <mxGeometry width="140" relative="1" as="geometry">
            <mxPoint x="244" y="331" as="sourcePoint" />
            <mxPoint x="104" y="331" as="targetPoint" />
            <Array as="points" />
          </mxGeometry>
        </mxCell>
        <mxCell id="5VcwTSrQK2vmdFMVyRVs-47" value="Valid_in" style="text;html=1;align=center;verticalAlign=middle;resizable=0;points=[];autosize=1;strokeColor=none;fillColor=none;fontSize=20;" parent="5VcwTSrQK2vmdFMVyRVs-58" vertex="1">
          <mxGeometry x="-5" y="254.5" width="90" height="40" as="geometry" />
        </mxCell>
        <mxCell id="5VcwTSrQK2vmdFMVyRVs-48" value="Ready_out" style="text;html=1;align=center;verticalAlign=middle;resizable=0;points=[];autosize=1;strokeColor=none;fillColor=none;fontSize=20;" parent="5VcwTSrQK2vmdFMVyRVs-58" vertex="1">
          <mxGeometry x="-17" y="311.5" width="120" height="40" as="geometry" />
        </mxCell>
        <mxCell id="5VcwTSrQK2vmdFMVyRVs-52" value="" style="edgeStyle=none;orthogonalLoop=1;jettySize=auto;html=1;rounded=0;fontSize=12;startSize=8;endSize=8;curved=1;" parent="5VcwTSrQK2vmdFMVyRVs-58" edge="1">
          <mxGeometry width="140" relative="1" as="geometry">
            <mxPoint x="788" y="289.5" as="sourcePoint" />
            <mxPoint x="928" y="289.5" as="targetPoint" />
            <Array as="points" />
          </mxGeometry>
        </mxCell>
        <mxCell id="5VcwTSrQK2vmdFMVyRVs-53" value="" style="edgeStyle=none;orthogonalLoop=1;jettySize=auto;html=1;rounded=0;fontSize=12;startSize=8;endSize=8;curved=1;" parent="5VcwTSrQK2vmdFMVyRVs-58" edge="1">
          <mxGeometry width="140" relative="1" as="geometry">
            <mxPoint x="930" y="331" as="sourcePoint" />
            <mxPoint x="790" y="331" as="targetPoint" />
            <Array as="points" />
          </mxGeometry>
        </mxCell>
        <mxCell id="5VcwTSrQK2vmdFMVyRVs-54" value="Valid_out" style="text;html=1;align=center;verticalAlign=middle;resizable=0;points=[];autosize=1;strokeColor=none;fillColor=none;fontSize=20;" parent="5VcwTSrQK2vmdFMVyRVs-58" vertex="1">
          <mxGeometry x="930" y="266" width="110" height="40" as="geometry" />
        </mxCell>
        <mxCell id="5VcwTSrQK2vmdFMVyRVs-55" value="Ready_in&amp;nbsp;" style="text;html=1;align=center;verticalAlign=middle;resizable=0;points=[];autosize=1;strokeColor=none;fillColor=none;fontSize=20;" parent="5VcwTSrQK2vmdFMVyRVs-58" vertex="1">
          <mxGeometry x="930" y="312" width="110" height="40" as="geometry" />
        </mxCell>
        <mxCell id="sCQdyQtqgk9IZsuZoN2k-35" value="&lt;font style=&quot;font-size: 20px;&quot;&gt;FULL&lt;/font&gt;" style="text;html=1;align=center;verticalAlign=middle;resizable=0;points=[];autosize=1;strokeColor=none;fillColor=none;" vertex="1" parent="5VcwTSrQK2vmdFMVyRVs-58">
          <mxGeometry x="730" y="192" width="70" height="40" as="geometry" />
        </mxCell>
        <mxCell id="sCQdyQtqgk9IZsuZoN2k-10" value="" style="group" vertex="1" connectable="0" parent="1">
          <mxGeometry x="-645" y="-590" width="905" height="364" as="geometry" />
        </mxCell>
        <mxCell id="5VcwTSrQK2vmdFMVyRVs-35" value="" style="edgeStyle=none;orthogonalLoop=1;jettySize=auto;html=1;rounded=0;fontSize=12;startSize=8;endSize=8;curved=1;" parent="sCQdyQtqgk9IZsuZoN2k-10" edge="1">
          <mxGeometry width="140" relative="1" as="geometry">
            <mxPoint x="515" y="58.16999999999999" as="sourcePoint" />
            <mxPoint x="794" y="58.16999999999999" as="targetPoint" />
            <Array as="points" />
          </mxGeometry>
        </mxCell>
        <mxCell id="5VcwTSrQK2vmdFMVyRVs-34" value="" style="edgeStyle=orthogonalEdgeStyle;orthogonalLoop=1;jettySize=auto;html=1;rounded=0;fontSize=12;startSize=8;endSize=8;" parent="sCQdyQtqgk9IZsuZoN2k-10" edge="1">
          <mxGeometry width="140" relative="1" as="geometry">
            <mxPoint x="98" y="58" as="sourcePoint" />
            <mxPoint x="358" y="58" as="targetPoint" />
          </mxGeometry>
        </mxCell>
        <mxCell id="5VcwTSrQK2vmdFMVyRVs-56" value="Data_in" style="text;html=1;align=center;verticalAlign=middle;resizable=0;points=[];autosize=1;strokeColor=none;fillColor=none;fontSize=20;" parent="sCQdyQtqgk9IZsuZoN2k-10" vertex="1">
          <mxGeometry y="39.5" width="90" height="40" as="geometry" />
        </mxCell>
        <mxCell id="5VcwTSrQK2vmdFMVyRVs-57" value="Data_out" style="text;html=1;align=center;verticalAlign=middle;resizable=0;points=[];autosize=1;strokeColor=none;fillColor=none;fontSize=20;" parent="sCQdyQtqgk9IZsuZoN2k-10" vertex="1">
          <mxGeometry x="805" y="39.5" width="100" height="40" as="geometry" />
        </mxCell>
        <mxCell id="sCQdyQtqgk9IZsuZoN2k-8" value="write_pointer" style="text;html=1;align=center;verticalAlign=middle;resizable=0;points=[];autosize=1;strokeColor=none;fillColor=none;fontSize=20;" vertex="1" parent="sCQdyQtqgk9IZsuZoN2k-10">
          <mxGeometry x="90" y="210" width="140" height="40" as="geometry" />
        </mxCell>
        <mxCell id="sCQdyQtqgk9IZsuZoN2k-9" value="" style="group" vertex="1" connectable="0" parent="sCQdyQtqgk9IZsuZoN2k-10">
          <mxGeometry x="345" width="168" height="364" as="geometry" />
        </mxCell>
        <mxCell id="5VcwTSrQK2vmdFMVyRVs-20" value="&lt;font style=&quot;font-size: 21px;&quot;&gt;FIFO&lt;/font&gt;" style="rounded=0;whiteSpace=wrap;html=1;direction=south;" parent="sCQdyQtqgk9IZsuZoN2k-9" vertex="1">
          <mxGeometry x="0.9081081081081082" width="163.45945945945948" height="364" as="geometry" />
        </mxCell>
        <mxCell id="5VcwTSrQK2vmdFMVyRVs-22" value="" style="edgeStyle=none;orthogonalLoop=1;jettySize=auto;html=1;rounded=0;fontSize=12;startSize=8;endSize=8;curved=1;endArrow=none;startFill=0;" parent="sCQdyQtqgk9IZsuZoN2k-9" edge="1">
          <mxGeometry width="140" relative="1" as="geometry">
            <mxPoint x="0.9081081081081082" y="15.952191235059761" as="sourcePoint" />
            <mxPoint x="165.27567567567567" y="15.227091633466136" as="targetPoint" />
            <Array as="points" />
          </mxGeometry>
        </mxCell>
        <mxCell id="5VcwTSrQK2vmdFMVyRVs-24" value="" style="edgeStyle=none;orthogonalLoop=1;jettySize=auto;html=1;rounded=0;fontSize=12;startSize=8;endSize=8;curved=1;endArrow=none;startFill=0;" parent="sCQdyQtqgk9IZsuZoN2k-9" edge="1">
          <mxGeometry width="140" relative="1" as="geometry">
            <mxPoint y="221.15537848605578" as="sourcePoint" />
            <mxPoint x="164.3675675675676" y="220.43027888446215" as="targetPoint" />
            <Array as="points" />
          </mxGeometry>
        </mxCell>
        <mxCell id="5VcwTSrQK2vmdFMVyRVs-25" value="" style="edgeStyle=none;orthogonalLoop=1;jettySize=auto;html=1;rounded=0;fontSize=12;startSize=8;endSize=8;curved=1;endArrow=none;startFill=0;" parent="sCQdyQtqgk9IZsuZoN2k-9" edge="1">
          <mxGeometry width="140" relative="1" as="geometry">
            <mxPoint x="3.6324324324324326" y="245.80876494023906" as="sourcePoint" />
            <mxPoint x="168" y="245.08366533864543" as="targetPoint" />
            <Array as="points" />
          </mxGeometry>
        </mxCell>
        <mxCell id="5VcwTSrQK2vmdFMVyRVs-26" value="" style="edgeStyle=none;orthogonalLoop=1;jettySize=auto;html=1;rounded=0;fontSize=12;startSize=8;endSize=8;curved=1;endArrow=none;startFill=0;" parent="sCQdyQtqgk9IZsuZoN2k-9" edge="1">
          <mxGeometry width="140" relative="1" as="geometry">
            <mxPoint x="0.9081081081081082" y="165.32270916334662" as="sourcePoint" />
            <mxPoint x="165.27567567567567" y="164.597609561753" as="targetPoint" />
            <Array as="points" />
          </mxGeometry>
        </mxCell>
        <mxCell id="5VcwTSrQK2vmdFMVyRVs-27" value="" style="edgeStyle=none;orthogonalLoop=1;jettySize=auto;html=1;rounded=0;fontSize=12;startSize=8;endSize=8;curved=1;endArrow=none;startFill=0;" parent="sCQdyQtqgk9IZsuZoN2k-9" edge="1">
          <mxGeometry width="140" relative="1" as="geometry">
            <mxPoint x="1.8162162162162163" y="337.17131474103587" as="sourcePoint" />
            <mxPoint x="166.18378378378378" y="336.44621513944224" as="targetPoint" />
            <Array as="points" />
          </mxGeometry>
        </mxCell>
        <mxCell id="5VcwTSrQK2vmdFMVyRVs-28" value="" style="edgeStyle=none;orthogonalLoop=1;jettySize=auto;html=1;rounded=0;fontSize=12;startSize=8;endSize=8;curved=1;endArrow=none;startFill=0;" parent="sCQdyQtqgk9IZsuZoN2k-9" edge="1">
          <mxGeometry width="140" relative="1" as="geometry">
            <mxPoint y="133.4183266932271" as="sourcePoint" />
            <mxPoint x="164.3675675675676" y="132.69322709163347" as="targetPoint" />
            <Array as="points" />
          </mxGeometry>
        </mxCell>
        <mxCell id="5VcwTSrQK2vmdFMVyRVs-29" value="" style="edgeStyle=none;orthogonalLoop=1;jettySize=auto;html=1;rounded=0;fontSize=12;startSize=8;endSize=8;curved=1;endArrow=none;startFill=0;" parent="sCQdyQtqgk9IZsuZoN2k-9" edge="1">
          <mxGeometry width="140" relative="1" as="geometry">
            <mxPoint x="0.4540540540540541" y="105.1394422310757" as="sourcePoint" />
            <mxPoint x="164.82162162162163" y="104.41434262948208" as="targetPoint" />
            <Array as="points" />
          </mxGeometry>
        </mxCell>
        <mxCell id="5VcwTSrQK2vmdFMVyRVs-30" value="" style="edgeStyle=none;orthogonalLoop=1;jettySize=auto;html=1;rounded=0;fontSize=12;startSize=8;endSize=8;curved=1;endArrow=none;startFill=0;" parent="sCQdyQtqgk9IZsuZoN2k-9" edge="1">
          <mxGeometry width="140" relative="1" as="geometry">
            <mxPoint x="0.9081081081081082" y="55.832669322709165" as="sourcePoint" />
            <mxPoint x="165.27567567567567" y="55.10756972111554" as="targetPoint" />
            <Array as="points" />
          </mxGeometry>
        </mxCell>
        <mxCell id="5VcwTSrQK2vmdFMVyRVs-32" value="" style="edgeStyle=none;orthogonalLoop=1;jettySize=auto;html=1;rounded=0;fontSize=12;startSize=8;endSize=8;curved=1;endArrow=none;startFill=0;" parent="sCQdyQtqgk9IZsuZoN2k-9" edge="1">
          <mxGeometry width="140" relative="1" as="geometry">
            <mxPoint y="78.31075697211156" as="sourcePoint" />
            <mxPoint x="164.3675675675676" y="77.58565737051794" as="targetPoint" />
            <Array as="points" />
          </mxGeometry>
        </mxCell>
        <mxCell id="5VcwTSrQK2vmdFMVyRVs-33" value="" style="edgeStyle=none;orthogonalLoop=1;jettySize=auto;html=1;rounded=0;fontSize=12;startSize=8;endSize=8;curved=1;endArrow=none;startFill=0;" parent="sCQdyQtqgk9IZsuZoN2k-9" edge="1">
          <mxGeometry width="140" relative="1" as="geometry">
            <mxPoint y="35.52988047808765" as="sourcePoint" />
            <mxPoint x="164.3675675675676" y="34.80478087649402" as="targetPoint" />
            <Array as="points" />
          </mxGeometry>
        </mxCell>
        <mxCell id="sCQdyQtqgk9IZsuZoN2k-1" value="" style="edgeStyle=none;orthogonalLoop=1;jettySize=auto;html=1;rounded=0;fontSize=12;startSize=8;endSize=8;curved=1;endArrow=none;startFill=0;" edge="1" parent="sCQdyQtqgk9IZsuZoN2k-9">
          <mxGeometry width="140" relative="1" as="geometry">
            <mxPoint x="0.9081081081081082" y="192.15139442231077" as="sourcePoint" />
            <mxPoint x="165.27567567567567" y="191.42629482071715" as="targetPoint" />
            <Array as="points" />
          </mxGeometry>
        </mxCell>
        <mxCell id="sCQdyQtqgk9IZsuZoN2k-3" value="" style="edgeStyle=none;orthogonalLoop=1;jettySize=auto;html=1;rounded=0;fontSize=12;startSize=8;endSize=8;curved=1;endArrow=none;startFill=0;" edge="1" parent="sCQdyQtqgk9IZsuZoN2k-9">
          <mxGeometry width="140" relative="1" as="geometry">
            <mxPoint x="1.8162162162162163" y="271.9123505976096" as="sourcePoint" />
            <mxPoint x="166.18378378378378" y="271.18725099601596" as="targetPoint" />
            <Array as="points" />
          </mxGeometry>
        </mxCell>
        <mxCell id="sCQdyQtqgk9IZsuZoN2k-5" value="" style="edgeStyle=none;orthogonalLoop=1;jettySize=auto;html=1;rounded=0;fontSize=12;startSize=8;endSize=8;curved=1;endArrow=none;startFill=0;" edge="1" parent="sCQdyQtqgk9IZsuZoN2k-9">
          <mxGeometry width="140" relative="1" as="geometry">
            <mxPoint x="1.8162162162162163" y="293.66533864541833" as="sourcePoint" />
            <mxPoint x="166.18378378378378" y="292.9402390438247" as="targetPoint" />
            <Array as="points" />
          </mxGeometry>
        </mxCell>
        <mxCell id="sCQdyQtqgk9IZsuZoN2k-6" value="" style="edgeStyle=none;orthogonalLoop=1;jettySize=auto;html=1;rounded=0;fontSize=12;startSize=8;endSize=8;curved=1;endArrow=none;startFill=0;" edge="1" parent="sCQdyQtqgk9IZsuZoN2k-9">
          <mxGeometry width="140" relative="1" as="geometry">
            <mxPoint x="1.8162162162162163" y="315.41832669322713" as="sourcePoint" />
            <mxPoint x="166.18378378378378" y="314.6932270916335" as="targetPoint" />
            <Array as="points" />
          </mxGeometry>
        </mxCell>
        <mxCell id="sCQdyQtqgk9IZsuZoN2k-7" style="edgeStyle=orthogonalEdgeStyle;rounded=0;orthogonalLoop=1;jettySize=auto;html=1;entryX=0.5;entryY=1;entryDx=0;entryDy=0;fontSize=19;" edge="1" parent="sCQdyQtqgk9IZsuZoN2k-10">
          <mxGeometry relative="1" as="geometry">
            <mxPoint x="285.4081081081081" y="192.00000000000045" as="targetPoint" />
            <mxPoint x="230" y="860" as="sourcePoint" />
            <Array as="points">
              <mxPoint x="230" y="190" />
              <mxPoint x="350" y="190" />
              <mxPoint x="350" y="192" />
            </Array>
          </mxGeometry>
        </mxCell>
        <mxCell id="sCQdyQtqgk9IZsuZoN2k-12" value="read_pointer" style="text;html=1;align=center;verticalAlign=middle;resizable=0;points=[];autosize=1;strokeColor=none;fillColor=none;fontSize=20;" vertex="1" parent="sCQdyQtqgk9IZsuZoN2k-10">
          <mxGeometry x="720" y="250" width="140" height="40" as="geometry" />
        </mxCell>
        <mxCell id="GD1T8zwyMoUhjJM4d9-L-4" value="" style="edgeStyle=none;orthogonalLoop=1;jettySize=auto;html=1;rounded=0;curved=1;" edge="1" parent="sCQdyQtqgk9IZsuZoN2k-10">
          <mxGeometry width="100" relative="1" as="geometry">
            <mxPoint x="245" y="130" as="sourcePoint" />
            <mxPoint x="345" y="130" as="targetPoint" />
            <Array as="points" />
          </mxGeometry>
        </mxCell>
        <mxCell id="GD1T8zwyMoUhjJM4d9-L-5" value="clk" style="text;html=1;align=center;verticalAlign=middle;resizable=0;points=[];autosize=1;strokeColor=none;fillColor=none;" vertex="1" parent="sCQdyQtqgk9IZsuZoN2k-10">
          <mxGeometry x="232" y="110" width="40" height="30" as="geometry" />
        </mxCell>
        <mxCell id="sCQdyQtqgk9IZsuZoN2k-11" style="edgeStyle=orthogonalEdgeStyle;rounded=0;orthogonalLoop=1;jettySize=auto;html=1;exitX=0.75;exitY=0;exitDx=0;exitDy=0;entryX=0.5;entryY=0;entryDx=0;entryDy=0;" edge="1" parent="1" source="5VcwTSrQK2vmdFMVyRVs-37" target="5VcwTSrQK2vmdFMVyRVs-20">
          <mxGeometry relative="1" as="geometry" />
        </mxCell>
        <mxCell id="sCQdyQtqgk9IZsuZoN2k-18" style="edgeStyle=orthogonalEdgeStyle;rounded=0;orthogonalLoop=1;jettySize=auto;html=1;exitX=0.5;exitY=0;exitDx=0;exitDy=0;fillColor=#ffe6cc;strokeColor=#d79b00;" edge="1" parent="1" source="sCQdyQtqgk9IZsuZoN2k-16">
          <mxGeometry relative="1" as="geometry">
            <mxPoint x="-415" y="-150" as="targetPoint" />
          </mxGeometry>
        </mxCell>
        <mxCell id="sCQdyQtqgk9IZsuZoN2k-20" style="edgeStyle=orthogonalEdgeStyle;rounded=0;orthogonalLoop=1;jettySize=auto;html=1;exitX=0.5;exitY=1;exitDx=0;exitDy=0;" edge="1" parent="1" source="sCQdyQtqgk9IZsuZoN2k-16">
          <mxGeometry relative="1" as="geometry">
            <mxPoint x="75" y="-70" as="targetPoint" />
          </mxGeometry>
        </mxCell>
        <mxCell id="sCQdyQtqgk9IZsuZoN2k-31" style="edgeStyle=orthogonalEdgeStyle;rounded=0;orthogonalLoop=1;jettySize=auto;html=1;exitX=1;exitY=0.5;exitDx=0;exitDy=0;" edge="1" parent="1" source="sCQdyQtqgk9IZsuZoN2k-16" target="sCQdyQtqgk9IZsuZoN2k-30">
          <mxGeometry relative="1" as="geometry" />
        </mxCell>
        <mxCell id="sCQdyQtqgk9IZsuZoN2k-16" value="&lt;font style=&quot;font-size: 14px;&quot;&gt;max(a,b)&lt;/font&gt;" style="ellipse;whiteSpace=wrap;html=1;" vertex="1" parent="1">
          <mxGeometry x="185" y="-210" width="80" height="80" as="geometry" />
        </mxCell>
        <mxCell id="sCQdyQtqgk9IZsuZoN2k-21" style="edgeStyle=orthogonalEdgeStyle;rounded=0;orthogonalLoop=1;jettySize=auto;html=1;exitX=0;exitY=0.5;exitDx=0;exitDy=0;fillColor=#ffe6cc;strokeColor=#d79b00;" edge="1" parent="1" source="sCQdyQtqgk9IZsuZoN2k-17">
          <mxGeometry relative="1" as="geometry">
            <mxPoint x="-415" y="-50" as="targetPoint" />
          </mxGeometry>
        </mxCell>
        <mxCell id="sCQdyQtqgk9IZsuZoN2k-27" style="edgeStyle=orthogonalEdgeStyle;rounded=0;orthogonalLoop=1;jettySize=auto;html=1;exitX=0.5;exitY=1;exitDx=0;exitDy=0;" edge="1" parent="1" source="sCQdyQtqgk9IZsuZoN2k-17">
          <mxGeometry relative="1" as="geometry">
            <mxPoint x="235" y="170" as="targetPoint" />
          </mxGeometry>
        </mxCell>
        <mxCell id="sCQdyQtqgk9IZsuZoN2k-33" style="edgeStyle=orthogonalEdgeStyle;rounded=0;orthogonalLoop=1;jettySize=auto;html=1;exitX=1;exitY=0.5;exitDx=0;exitDy=0;entryX=0.5;entryY=1;entryDx=0;entryDy=0;" edge="1" parent="1" source="sCQdyQtqgk9IZsuZoN2k-17" target="sCQdyQtqgk9IZsuZoN2k-30">
          <mxGeometry relative="1" as="geometry" />
        </mxCell>
        <mxCell id="sCQdyQtqgk9IZsuZoN2k-17" value="&lt;font style=&quot;font-size: 14px;&quot;&gt;min(a,b)&lt;/font&gt;" style="ellipse;whiteSpace=wrap;html=1;" vertex="1" parent="1">
          <mxGeometry x="185" y="-40" width="80" height="80" as="geometry" />
        </mxCell>
        <mxCell id="sCQdyQtqgk9IZsuZoN2k-26" value="" style="edgeStyle=none;orthogonalLoop=1;jettySize=auto;html=1;rounded=0;" edge="1" parent="1">
          <mxGeometry width="80" relative="1" as="geometry">
            <mxPoint x="235" y="170" as="sourcePoint" />
            <mxPoint x="-85" y="170" as="targetPoint" />
            <Array as="points" />
          </mxGeometry>
        </mxCell>
        <mxCell id="sCQdyQtqgk9IZsuZoN2k-30" value="&lt;font style=&quot;font-size: 14px;&quot;&gt;a - b&lt;/font&gt;" style="ellipse;whiteSpace=wrap;html=1;" vertex="1" parent="1">
          <mxGeometry x="314" y="-120" width="80" height="80" as="geometry" />
        </mxCell>
        <mxCell id="sCQdyQtqgk9IZsuZoN2k-34" style="edgeStyle=orthogonalEdgeStyle;rounded=0;orthogonalLoop=1;jettySize=auto;html=1;exitX=1;exitY=0.5;exitDx=0;exitDy=0;entryX=0.886;entryY=0.009;entryDx=0;entryDy=0;entryPerimeter=0;" edge="1" parent="1" source="sCQdyQtqgk9IZsuZoN2k-30" target="5VcwTSrQK2vmdFMVyRVs-37">
          <mxGeometry relative="1" as="geometry">
            <Array as="points">
              <mxPoint x="414" y="-80" />
              <mxPoint x="414" y="190" />
              <mxPoint x="-7" y="190" />
            </Array>
          </mxGeometry>
        </mxCell>
        <mxCell id="sCQdyQtqgk9IZsuZoN2k-36" value="&lt;span style=&quot;font-size: 24px;&quot;&gt;DATA PATH AND CINTROLLER&lt;/span&gt;" style="text;html=1;align=center;verticalAlign=middle;resizable=0;points=[];autosize=1;strokeColor=none;fillColor=none;" vertex="1" parent="1">
          <mxGeometry x="-637.5" y="-850" width="360" height="40" as="geometry" />
        </mxCell>
        <mxCell id="GD1T8zwyMoUhjJM4d9-L-1" value="" style="edgeStyle=none;orthogonalLoop=1;jettySize=auto;html=1;rounded=0;curved=1;entryX=0.07;entryY=1.009;entryDx=0;entryDy=0;entryPerimeter=0;" edge="1" parent="1">
          <mxGeometry width="100" relative="1" as="geometry">
            <mxPoint x="-436" y="460" as="sourcePoint" />
            <mxPoint x="-435.78" y="381.9720000000002" as="targetPoint" />
            <Array as="points" />
          </mxGeometry>
        </mxCell>
        <mxCell id="GD1T8zwyMoUhjJM4d9-L-3" value="reset" style="text;html=1;align=center;verticalAlign=middle;resizable=0;points=[];autosize=1;strokeColor=none;fillColor=none;" vertex="1" parent="1">
          <mxGeometry x="-442" y="408" width="50" height="30" as="geometry" />
        </mxCell>
      </root>
    </mxGraphModel>
  </diagram>
  <diagram id="OnKdz11fUEOJzL-YR-d3" name="Page-2">
    <mxGraphModel dx="1330" dy="537" grid="1" gridSize="10" guides="1" tooltips="1" connect="1" arrows="1" fold="1" page="1" pageScale="1" pageWidth="827" pageHeight="1169" background="#ffffff" math="0" shadow="0">
      <root>
        <mxCell id="0" />
        <mxCell id="1" parent="0" />
        <mxCell id="s7B7d_PeUPtxlLy2d8Sm-17" style="edgeStyle=orthogonalEdgeStyle;curved=1;rounded=0;orthogonalLoop=1;jettySize=auto;html=1;exitX=1;exitY=0.5;exitDx=0;exitDy=0;" edge="1" parent="1" source="s7B7d_PeUPtxlLy2d8Sm-1" target="s7B7d_PeUPtxlLy2d8Sm-16">
          <mxGeometry relative="1" as="geometry" />
        </mxCell>
        <mxCell id="s7B7d_PeUPtxlLy2d8Sm-1" value="IDLE" style="ellipse;whiteSpace=wrap;html=1;" vertex="1" parent="1">
          <mxGeometry x="370" y="110" width="80" height="80" as="geometry" />
        </mxCell>
        <mxCell id="s7B7d_PeUPtxlLy2d8Sm-5" value="" style="edgeStyle=none;orthogonalLoop=1;jettySize=auto;html=1;rounded=0;curved=1;entryX=1;entryY=0;entryDx=0;entryDy=0;" edge="1" parent="1" target="s7B7d_PeUPtxlLy2d8Sm-1">
          <mxGeometry width="100" relative="1" as="geometry">
            <mxPoint x="560" y="70" as="sourcePoint" />
            <mxPoint x="460" y="70" as="targetPoint" />
            <Array as="points">
              <mxPoint x="470" y="60" />
            </Array>
          </mxGeometry>
        </mxCell>
        <mxCell id="s7B7d_PeUPtxlLy2d8Sm-6" value="Reset" style="text;html=1;align=center;verticalAlign=middle;resizable=0;points=[];autosize=1;strokeColor=none;fillColor=none;" vertex="1" parent="1">
          <mxGeometry x="520" y="38" width="50" height="30" as="geometry" />
        </mxCell>
        <mxCell id="s7B7d_PeUPtxlLy2d8Sm-8" value="valid_in&lt;div&gt;valid_out&amp;nbsp;&lt;/div&gt;&lt;div&gt;ready_in&lt;/div&gt;&lt;div&gt;ready_out&lt;/div&gt;&lt;div&gt;empty&lt;/div&gt;&lt;div&gt;full&lt;/div&gt;" style="text;html=1;align=center;verticalAlign=middle;resizable=0;points=[];autosize=1;strokeColor=none;fillColor=none;" vertex="1" parent="1">
          <mxGeometry x="50" y="30" width="80" height="100" as="geometry" />
        </mxCell>
        <mxCell id="s7B7d_PeUPtxlLy2d8Sm-14" value="" style="edgeStyle=none;orthogonalLoop=1;jettySize=auto;html=1;rounded=0;curved=1;exitX=0.1;exitY=0.763;exitDx=0;exitDy=0;exitPerimeter=0;" edge="1" parent="1" source="s7B7d_PeUPtxlLy2d8Sm-1" target="s7B7d_PeUPtxlLy2d8Sm-1">
          <mxGeometry width="100" relative="1" as="geometry">
            <mxPoint x="250" y="110" as="sourcePoint" />
            <mxPoint x="350" y="110" as="targetPoint" />
            <Array as="points">
              <mxPoint x="290" y="230" />
              <mxPoint x="230" y="140" />
              <mxPoint x="300" y="110" />
            </Array>
          </mxGeometry>
        </mxCell>
        <mxCell id="s7B7d_PeUPtxlLy2d8Sm-15" value="&lt;font style=&quot;font-size: 12px;&quot;&gt;!valid_in , ready_out ,empty /&lt;/font&gt;" style="text;html=1;align=center;verticalAlign=middle;resizable=0;points=[];autosize=1;strokeColor=none;fillColor=none;" vertex="1" parent="1">
          <mxGeometry x="170" y="90" width="180" height="30" as="geometry" />
        </mxCell>
        <mxCell id="s7B7d_PeUPtxlLy2d8Sm-16" value="WRITE" style="ellipse;whiteSpace=wrap;html=1;" vertex="1" parent="1">
          <mxGeometry x="650" y="360" width="80" height="80" as="geometry" />
        </mxCell>
        <mxCell id="s7B7d_PeUPtxlLy2d8Sm-18" value="valid_in,ready_out&amp;nbsp;&lt;div&gt;/ write_pointer+1&amp;nbsp;&lt;/div&gt;" style="text;html=1;align=center;verticalAlign=middle;resizable=0;points=[];autosize=1;strokeColor=none;fillColor=none;" vertex="1" parent="1">
          <mxGeometry x="600" y="140" width="120" height="40" as="geometry" />
        </mxCell>
        <mxCell id="s7B7d_PeUPtxlLy2d8Sm-22" style="edgeStyle=orthogonalEdgeStyle;curved=1;rounded=0;orthogonalLoop=1;jettySize=auto;html=1;exitX=1;exitY=0.5;exitDx=0;exitDy=0;entryX=0.588;entryY=0.988;entryDx=0;entryDy=0;entryPerimeter=0;" edge="1" parent="1" source="s7B7d_PeUPtxlLy2d8Sm-16" target="s7B7d_PeUPtxlLy2d8Sm-16">
          <mxGeometry relative="1" as="geometry" />
        </mxCell>
        <mxCell id="s7B7d_PeUPtxlLy2d8Sm-24" value="&lt;span style=&quot;color: rgb(0, 0, 0); font-family: Helvetica; font-size: 12px; font-style: normal; font-variant-ligatures: normal; font-variant-caps: normal; font-weight: 400; letter-spacing: normal; orphans: 2; text-align: center; text-indent: 0px; text-transform: none; widows: 2; word-spacing: 0px; -webkit-text-stroke-width: 0px; white-space: nowrap; background-color: rgb(236, 236, 236); text-decoration-thickness: initial; text-decoration-style: initial; text-decoration-color: initial; display: inline !important; float: none;&quot;&gt;valid_in,ready_out&amp;nbsp;&lt;/span&gt;&lt;div&gt;&lt;span style=&quot;color: rgb(0, 0, 0); font-family: Helvetica; font-size: 12px; font-style: normal; font-variant-ligatures: normal; font-variant-caps: normal; font-weight: 400; letter-spacing: normal; orphans: 2; text-align: center; text-indent: 0px; text-transform: none; widows: 2; word-spacing: 0px; -webkit-text-stroke-width: 0px; white-space: nowrap; background-color: rgb(236, 236, 236); text-decoration-thickness: initial; text-decoration-style: initial; text-decoration-color: initial; display: inline !important; float: none;&quot;&gt;/ write_pointer+1, valid_out&lt;/span&gt;&lt;/div&gt;" style="text;whiteSpace=wrap;html=1;" vertex="1" parent="1">
          <mxGeometry x="747.5" y="430" width="150" height="40" as="geometry" />
        </mxCell>
        <mxCell id="KTCuNMwQp79rCymB39_i-15" style="edgeStyle=orthogonalEdgeStyle;curved=1;rounded=0;orthogonalLoop=1;jettySize=auto;html=1;exitX=1;exitY=1;exitDx=0;exitDy=0;entryX=1;entryY=0;entryDx=0;entryDy=0;" edge="1" parent="1" source="s7B7d_PeUPtxlLy2d8Sm-26" target="s7B7d_PeUPtxlLy2d8Sm-16">
          <mxGeometry relative="1" as="geometry">
            <Array as="points">
              <mxPoint x="990" y="718" />
              <mxPoint x="990" y="372" />
            </Array>
          </mxGeometry>
        </mxCell>
        <mxCell id="s7B7d_PeUPtxlLy2d8Sm-26" value="WAIT" style="ellipse;whiteSpace=wrap;html=1;" vertex="1" parent="1">
          <mxGeometry x="650" y="650" width="80" height="80" as="geometry" />
        </mxCell>
        <mxCell id="s7B7d_PeUPtxlLy2d8Sm-27" style="edgeStyle=orthogonalEdgeStyle;curved=1;rounded=0;orthogonalLoop=1;jettySize=auto;html=1;exitX=0.5;exitY=1;exitDx=0;exitDy=0;entryX=0.35;entryY=0.075;entryDx=0;entryDy=0;entryPerimeter=0;" edge="1" parent="1" source="s7B7d_PeUPtxlLy2d8Sm-16" target="s7B7d_PeUPtxlLy2d8Sm-26">
          <mxGeometry relative="1" as="geometry">
            <Array as="points">
              <mxPoint x="690" y="530" />
              <mxPoint x="640" y="530" />
              <mxPoint x="640" y="656" />
            </Array>
          </mxGeometry>
        </mxCell>
        <mxCell id="s7B7d_PeUPtxlLy2d8Sm-28" value="&lt;span style=&quot;color: rgb(0, 0, 0); font-family: Helvetica; font-size: 12px; font-style: normal; font-variant-ligatures: normal; font-variant-caps: normal; font-weight: 400; letter-spacing: normal; orphans: 2; text-align: center; text-indent: 0px; text-transform: none; widows: 2; word-spacing: 0px; -webkit-text-stroke-width: 0px; white-space: nowrap; background-color: rgb(236, 236, 236); text-decoration-thickness: initial; text-decoration-style: initial; text-decoration-color: initial; display: inline !important; float: none;&quot;&gt;ready_out , valid_out /&amp;nbsp;&lt;/span&gt;" style="text;whiteSpace=wrap;html=1;" vertex="1" parent="1">
          <mxGeometry x="632.5" y="560" width="115" height="30" as="geometry" />
        </mxCell>
        <mxCell id="s7B7d_PeUPtxlLy2d8Sm-30" value="&lt;span style=&quot;color: rgb(0, 0, 0); font-family: Helvetica; font-size: 12px; font-style: normal; font-variant-ligatures: normal; font-variant-caps: normal; font-weight: 400; letter-spacing: normal; orphans: 2; text-align: center; text-indent: 0px; text-transform: none; widows: 2; word-spacing: 0px; -webkit-text-stroke-width: 0px; white-space: nowrap; background-color: rgb(236, 236, 236); text-decoration-thickness: initial; text-decoration-style: initial; text-decoration-color: initial; display: inline !important; float: none;&quot;&gt;valid_in,ready_out , valid_out&amp;nbsp;&lt;/span&gt;&lt;div&gt;&lt;span style=&quot;color: rgb(0, 0, 0); font-family: Helvetica; font-size: 12px; font-style: normal; font-variant-ligatures: normal; font-variant-caps: normal; font-weight: 400; letter-spacing: normal; orphans: 2; text-align: center; text-indent: 0px; text-transform: none; widows: 2; word-spacing: 0px; -webkit-text-stroke-width: 0px; white-space: nowrap; background-color: rgb(236, 236, 236); text-decoration-thickness: initial; text-decoration-style: initial; text-decoration-color: initial; display: inline !important; float: none;&quot;&gt;/ write_pointer+1&amp;nbsp;&lt;/span&gt;&lt;/div&gt;" style="text;whiteSpace=wrap;html=1;" vertex="1" parent="1">
          <mxGeometry x="930" y="670" width="200" height="40" as="geometry" />
        </mxCell>
        <mxCell id="KTCuNMwQp79rCymB39_i-6" style="edgeStyle=orthogonalEdgeStyle;curved=1;rounded=0;orthogonalLoop=1;jettySize=auto;html=1;exitX=1;exitY=1;exitDx=0;exitDy=0;entryX=0;entryY=1;entryDx=0;entryDy=0;" edge="1" parent="1" source="s7B7d_PeUPtxlLy2d8Sm-32" target="s7B7d_PeUPtxlLy2d8Sm-26">
          <mxGeometry relative="1" as="geometry">
            <Array as="points">
              <mxPoint x="310" y="548" />
              <mxPoint x="310" y="710" />
              <mxPoint x="662" y="710" />
            </Array>
          </mxGeometry>
        </mxCell>
        <mxCell id="KTCuNMwQp79rCymB39_i-18" style="edgeStyle=orthogonalEdgeStyle;curved=1;rounded=0;orthogonalLoop=1;jettySize=auto;html=1;exitX=0.5;exitY=0;exitDx=0;exitDy=0;" edge="1" parent="1" source="s7B7d_PeUPtxlLy2d8Sm-32" target="s7B7d_PeUPtxlLy2d8Sm-1">
          <mxGeometry relative="1" as="geometry" />
        </mxCell>
        <mxCell id="KTCuNMwQp79rCymB39_i-20" style="edgeStyle=orthogonalEdgeStyle;curved=1;rounded=0;orthogonalLoop=1;jettySize=auto;html=1;exitX=1;exitY=0.5;exitDx=0;exitDy=0;entryX=0;entryY=0.5;entryDx=0;entryDy=0;" edge="1" parent="1" source="s7B7d_PeUPtxlLy2d8Sm-32" target="s7B7d_PeUPtxlLy2d8Sm-16">
          <mxGeometry relative="1" as="geometry" />
        </mxCell>
        <mxCell id="s7B7d_PeUPtxlLy2d8Sm-32" value="READ" style="ellipse;whiteSpace=wrap;html=1;" vertex="1" parent="1">
          <mxGeometry x="230" y="480" width="80" height="80" as="geometry" />
        </mxCell>
        <mxCell id="s7B7d_PeUPtxlLy2d8Sm-33" style="edgeStyle=orthogonalEdgeStyle;curved=1;rounded=0;orthogonalLoop=1;jettySize=auto;html=1;exitX=0;exitY=0;exitDx=0;exitDy=0;entryX=1;entryY=0;entryDx=0;entryDy=0;" edge="1" parent="1" source="s7B7d_PeUPtxlLy2d8Sm-16" target="s7B7d_PeUPtxlLy2d8Sm-32">
          <mxGeometry relative="1" as="geometry" />
        </mxCell>
        <mxCell id="s7B7d_PeUPtxlLy2d8Sm-34" value="&lt;span style=&quot;color: rgb(0, 0, 0); font-family: Helvetica; font-size: 12px; font-style: normal; font-variant-ligatures: normal; font-variant-caps: normal; font-weight: 400; letter-spacing: normal; orphans: 2; text-align: center; text-indent: 0px; text-transform: none; widows: 2; word-spacing: 0px; -webkit-text-stroke-width: 0px; white-space: nowrap; background-color: rgb(236, 236, 236); text-decoration-thickness: initial; text-decoration-style: initial; text-decoration-color: initial; display: inline !important; float: none;&quot;&gt;valid_out,ready_in&amp;nbsp;&lt;/span&gt;&lt;div&gt;&lt;span style=&quot;color: rgb(0, 0, 0); font-family: Helvetica; font-size: 12px; font-style: normal; font-variant-ligatures: normal; font-variant-caps: normal; font-weight: 400; letter-spacing: normal; orphans: 2; text-align: center; text-indent: 0px; text-transform: none; widows: 2; word-spacing: 0px; -webkit-text-stroke-width: 0px; white-space: nowrap; background-color: rgb(236, 236, 236); text-decoration-thickness: initial; text-decoration-style: initial; text-decoration-color: initial; display: inline !important; float: none;&quot;&gt;/ read_pointer+1&amp;nbsp;&lt;/span&gt;&lt;/div&gt;" style="text;whiteSpace=wrap;html=1;" vertex="1" parent="1">
          <mxGeometry x="450" y="330" width="110" height="40" as="geometry" />
        </mxCell>
        <mxCell id="s7B7d_PeUPtxlLy2d8Sm-38" style="edgeStyle=orthogonalEdgeStyle;curved=1;rounded=0;orthogonalLoop=1;jettySize=auto;html=1;exitX=0;exitY=1;exitDx=0;exitDy=0;entryX=0.013;entryY=0.613;entryDx=0;entryDy=0;entryPerimeter=0;" edge="1" parent="1" source="s7B7d_PeUPtxlLy2d8Sm-16" target="s7B7d_PeUPtxlLy2d8Sm-26">
          <mxGeometry relative="1" as="geometry">
            <Array as="points">
              <mxPoint x="662" y="480" />
              <mxPoint x="580" y="480" />
              <mxPoint x="580" y="699" />
            </Array>
          </mxGeometry>
        </mxCell>
        <mxCell id="s7B7d_PeUPtxlLy2d8Sm-39" value="&lt;div style=&quot;text-align: center;&quot;&gt;&lt;span style=&quot;background-color: transparent; color: light-dark(rgb(0, 0, 0), rgb(255, 255, 255)); text-wrap-mode: nowrap;&quot;&gt;full, valid_out&amp;nbsp;&lt;/span&gt;&lt;/div&gt;&lt;div style=&quot;text-align: center;&quot;&gt;&lt;span style=&quot;background-color: transparent; color: light-dark(rgb(0, 0, 0), rgb(255, 255, 255)); text-wrap-mode: nowrap;&quot;&gt;/ !ready_out&lt;/span&gt;&lt;/div&gt;" style="text;whiteSpace=wrap;html=1;" vertex="1" parent="1">
          <mxGeometry x="510" y="530" width="90" height="40" as="geometry" />
        </mxCell>
        <mxCell id="s7B7d_PeUPtxlLy2d8Sm-40" style="edgeStyle=orthogonalEdgeStyle;curved=1;rounded=0;orthogonalLoop=1;jettySize=auto;html=1;exitX=0.5;exitY=1;exitDx=0;exitDy=0;entryX=0.6;entryY=0.975;entryDx=0;entryDy=0;entryPerimeter=0;" edge="1" parent="1" source="s7B7d_PeUPtxlLy2d8Sm-26" target="s7B7d_PeUPtxlLy2d8Sm-32">
          <mxGeometry relative="1" as="geometry" />
        </mxCell>
        <mxCell id="s7B7d_PeUPtxlLy2d8Sm-41" value="&lt;div style=&quot;text-align: center;&quot;&gt;full, valid_out, ready_in&amp;nbsp;&lt;/div&gt;&lt;div style=&quot;text-align: center;&quot;&gt;/&amp;nbsp; read_pointer + 1&lt;/div&gt;" style="text;whiteSpace=wrap;html=1;" vertex="1" parent="1">
          <mxGeometry x="310" y="750" width="130" height="40" as="geometry" />
        </mxCell>
        <mxCell id="KTCuNMwQp79rCymB39_i-4" value="" style="edgeStyle=none;orthogonalLoop=1;jettySize=auto;html=1;rounded=0;curved=1;" edge="1" parent="1" source="s7B7d_PeUPtxlLy2d8Sm-32" target="s7B7d_PeUPtxlLy2d8Sm-32">
          <mxGeometry width="100" relative="1" as="geometry">
            <mxPoint x="60" y="520" as="sourcePoint" />
            <mxPoint x="160" y="520" as="targetPoint" />
            <Array as="points">
              <mxPoint x="160" y="450" />
            </Array>
          </mxGeometry>
        </mxCell>
        <mxCell id="KTCuNMwQp79rCymB39_i-5" value="&lt;span style=&quot;color: rgb(0, 0, 0); font-family: Helvetica; font-size: 12px; font-style: normal; font-variant-ligatures: normal; font-variant-caps: normal; font-weight: 400; letter-spacing: normal; orphans: 2; text-align: center; text-indent: 0px; text-transform: none; widows: 2; word-spacing: 0px; -webkit-text-stroke-width: 0px; white-space: nowrap; background-color: rgb(236, 236, 236); text-decoration-thickness: initial; text-decoration-style: initial; text-decoration-color: initial; display: inline !important; float: none;&quot;&gt;valid_out,ready_in&amp;nbsp;&lt;/span&gt;&lt;div&gt;&lt;span style=&quot;color: rgb(0, 0, 0); font-family: Helvetica; font-size: 12px; font-style: normal; font-variant-ligatures: normal; font-variant-caps: normal; font-weight: 400; letter-spacing: normal; orphans: 2; text-align: center; text-indent: 0px; text-transform: none; widows: 2; word-spacing: 0px; -webkit-text-stroke-width: 0px; white-space: nowrap; background-color: rgb(236, 236, 236); text-decoration-thickness: initial; text-decoration-style: initial; text-decoration-color: initial; display: inline !important; float: none;&quot;&gt;/ read_pointer+1, ready_out&amp;nbsp;&lt;/span&gt;&lt;/div&gt;" style="text;whiteSpace=wrap;html=1;" vertex="1" parent="1">
          <mxGeometry x="70" y="550" width="160" height="40" as="geometry" />
        </mxCell>
        <mxCell id="KTCuNMwQp79rCymB39_i-7" value="&lt;span style=&quot;color: rgb(0, 0, 0); font-family: Helvetica; font-size: 12px; font-style: normal; font-variant-ligatures: normal; font-variant-caps: normal; font-weight: 400; letter-spacing: normal; orphans: 2; text-align: center; text-indent: 0px; text-transform: none; widows: 2; word-spacing: 0px; -webkit-text-stroke-width: 0px; white-space: nowrap; background-color: rgb(236, 236, 236); text-decoration-thickness: initial; text-decoration-style: initial; text-decoration-color: initial; display: inline !important; float: none;&quot;&gt;valid_out, ready_out&lt;/span&gt;&lt;div&gt;&lt;span style=&quot;color: rgb(0, 0, 0); font-family: Helvetica; font-size: 12px; font-style: normal; font-variant-ligatures: normal; font-variant-caps: normal; font-weight: 400; letter-spacing: normal; orphans: 2; text-align: center; text-indent: 0px; text-transform: none; widows: 2; word-spacing: 0px; -webkit-text-stroke-width: 0px; white-space: nowrap; background-color: rgb(236, 236, 236); text-decoration-thickness: initial; text-decoration-style: initial; text-decoration-color: initial; display: inline !important; float: none;&quot;&gt;/&amp;nbsp;&amp;nbsp;&lt;/span&gt;&lt;/div&gt;" style="text;whiteSpace=wrap;html=1;" vertex="1" parent="1">
          <mxGeometry x="400" y="630" width="110" height="40" as="geometry" />
        </mxCell>
        <mxCell id="KTCuNMwQp79rCymB39_i-10" value="&lt;div style=&quot;forced-color-adjust: none; color: rgb(0, 0, 0); font-family: Helvetica; font-size: 12px; font-style: normal; font-variant-ligatures: normal; font-variant-caps: normal; font-weight: 400; letter-spacing: normal; orphans: 2; text-indent: 0px; text-transform: none; widows: 2; word-spacing: 0px; -webkit-text-stroke-width: 0px; white-space: normal; background-color: rgb(236, 236, 236); text-decoration-thickness: initial; text-decoration-style: initial; text-decoration-color: initial; text-align: center;&quot;&gt;full, valid_ou, /&amp;nbsp;&amp;nbsp;&lt;/div&gt;" style="text;whiteSpace=wrap;html=1;" vertex="1" parent="1">
          <mxGeometry x="780" y="610" width="100" height="25" as="geometry" />
        </mxCell>
        <mxCell id="KTCuNMwQp79rCymB39_i-17" style="edgeStyle=orthogonalEdgeStyle;curved=1;rounded=0;orthogonalLoop=1;jettySize=auto;html=1;exitX=1;exitY=0;exitDx=0;exitDy=0;entryX=1;entryY=0.5;entryDx=0;entryDy=0;" edge="1" parent="1" source="s7B7d_PeUPtxlLy2d8Sm-26" target="s7B7d_PeUPtxlLy2d8Sm-26">
          <mxGeometry relative="1" as="geometry">
            <Array as="points">
              <mxPoint x="718" y="630" />
              <mxPoint x="810" y="630" />
              <mxPoint x="810" y="690" />
            </Array>
          </mxGeometry>
        </mxCell>
        <mxCell id="KTCuNMwQp79rCymB39_i-19" value="empty, ready_out ./" style="text;html=1;align=center;verticalAlign=middle;resizable=0;points=[];autosize=1;strokeColor=none;fillColor=none;" vertex="1" parent="1">
          <mxGeometry x="215" y="278" width="130" height="30" as="geometry" />
        </mxCell>
        <mxCell id="KTCuNMwQp79rCymB39_i-21" value="valid_in, ready_out&amp;nbsp;&lt;div&gt;/write_pointer&amp;nbsp;&lt;/div&gt;" style="text;html=1;align=center;verticalAlign=middle;resizable=0;points=[];autosize=1;strokeColor=none;fillColor=none;" vertex="1" parent="1">
          <mxGeometry x="330" y="470" width="130" height="40" as="geometry" />
        </mxCell>
      </root>
    </mxGraphModel>
  </diagram>
</mxfile>
